<svg xmlns="http://www.w3.org/2000/svg" viewBox="0 0 291.11 170.63"><g id="Layer_2" data-name="Layer 2"><g id="Stamp"><g id="Logo_final"><g id="E"><g id="e_shadows"><path d="M230.48,66.11s10.85,2.58,7.78,23c0,0,.55,2.28-25.89,13.11-1.67,3.81.49,10,3.14,13.84,0,0-6.88-2-5-14.76.15-1,25.1-11.09,25.58-13.68S237.63,70.79,230.48,66.11Z" style="fill:#b7a87a"/><path d="M209.43,90l1.53-.62S211.72,65.8,221.64,69C221.64,69,210.17,59.63,209.43,90Z" style="fill:#b7a87a"/><path d="M219.69,127s18.87,4.4,18.87-16.44C237.1,110.4,236.77,125.78,219.69,127Z" style="fill:#b7a87a"/></g><path id="E-2" data-name="E" d="M218.87,62.59c-6.05,0-21.67,2.81-22.9,29.69-2.46,40.11,38.75,43.59,41.3,16,0-2.44-2.27,8.46-16.9,8.53-9.85.05-11.45-7-11.23-17,0,0-.22-1.41,1.59-2.06,2.61-.92,24.06-9.61,24.26-11.84C235.51,82.58,238.8,61.9,218.87,62.59Zm4.62,19.7c-.35,3-13.89,7.5-13.89,7.5-.81.27-.56,0-.68-3s1.27-20.44,8.55-20S223.83,79.36,223.49,82.29Z" style="fill:#344b3c"/></g><g id="D"><g id="d_shadows"><path d="M169,79.4c-20.33-5.83-13.2,31.77-9.44,36.21,0,0-5.39-2-6.66-16.63a35.54,35.54,0,0,1,1-12.5C158.35,70.47,169,79.4,169,79.4Z" style="fill:#b7a87a"/><path d="M185.4,30.88a11,11,0,0,1,2.65-5.28c-.16,4.1,0,76.08.7,91.58a11.08,11.08,0,0,0,1.14,4.41,20.55,20.55,0,0,0,4.39,6.07l-23.07,2.92,2.23-2.29,17-1.88A21,21,0,0,1,186.34,114C186.34,106.66,185.4,30.88,185.4,30.88Z" style="fill:#b7a87a"/><path d="M170.84,69.06c-2.88-4.77-9.19-5.39-9.19-5.39,5.56-1,9.18,2.53,9.19,2.84Z" style="fill:#b7a87a"/></g><path id="d-2" data-name="d" d="M187.82,125.33c-2.94-1.06-3.34-7.62-3.68-9.93A9.15,9.15,0,0,1,184,114l.11-80.17s-.26-7.15,4.54-9.77L170.76,12.13V71.87s-5.26-11.16-17.59-6.34c-31.63,15.89-15,88.26,17.28,55.82v6.11S184.76,125.55,187.82,125.33ZM170,111a2.29,2.29,0,0,1-.33,1.23c-1.54,2.54-11.37,7.86-16.4-2.84a22.78,22.78,0,0,1-1.87-5.9C148.2,85.91,155.83,74,163.81,75.69c6.67,1.33,6.64,8.51,6.64,10Z" style="fill:#344b3c"/></g><g id="I"><path id="shadow_i" d="M126.49,71.19s.12,44.31.11,45.67c0,3.68,2.35,11.83,6.43,14.71,0,0-20.21,3.83-20.51,4.24a13.08,13.08,0,0,0-1.07,1.3l25.28-4.4s-6.41-6.91-7.63-14a13.14,13.14,0,0,1-.15-2.35l.46-47.11Z" style="fill:#b7a87a"/><path id="i-2" data-name="i" d="M125.57,66.26v49.83a18.47,18.47,0,0,0,.11,2.1c.32,2.89,1.49,10.09,5.41,12.62l-22.55,4.4s4.47-4.66,4.23-13.1c-.07-8.39-.39-41.07-.57-42.38-.25-1.9-1.33-6.49-4.74-7.36Z" style="fill:#344b3c"/></g><g id="registered"><path d="M248,127.63a5.61,5.61,0,1,1,5.61-5.61A5.61,5.61,0,0,1,248,127.63Zm0-10.88a5.27,5.27,0,1,0,5.26,5.27A5.27,5.27,0,0,0,248,116.75Z" style="fill:#465d4f"/><path d="M246.13,118.8a8.83,8.83,0,0,1,1.65-.14,2.67,2.67,0,0,1,1.92.55,1.63,1.63,0,0,1,.53,1.26,1.76,1.76,0,0,1-1.26,1.7v0a1.65,1.65,0,0,1,1,1.34,10.91,10.91,0,0,0,.51,1.83h-.89a9.91,9.91,0,0,1-.44-1.59c-.2-.92-.55-1.27-1.33-1.3H247v2.89h-.86Zm.86,3h.88c.91,0,1.5-.5,1.5-1.26s-.62-1.23-1.53-1.24a4.33,4.33,0,0,0-.85.07Z" style="fill:#465d4f"/></g><g id="T"><g id="T_shadows"><path d="M87.08,50.6s-5.16,5.34-5.16,9.32,1.28,86.63,2.29,92.69c.77,4.57,2.24,8.12,7.56,9.62,0,0-5.17-1.91-5.48-20.82,0-10.86-.87-79.8-.86-80.1C85.69,53.18,85.9,52.63,87.08,50.6Z" style="fill:#b7a87a"/><path d="M95.06,165l-2.56-1.85s-46.33,9.51-48.58,6.48C43.92,169.67,43.55,173.77,95.06,165Z" style="fill:#b7a87a"/><path d="M12.26,33.94S14,38.3,20.07,42.07a27.53,27.53,0,0,0,18.31,3.57C48.74,44.2,57.3,36.41,77.51,27.58l4.41-5S33.14,57.07,12.26,33.94Z" style="fill:#b7a87a"/><path d="M118,10.32s21,3.22,25.36,19.9c1.48,5.7-1.38,17.52-10.24,26.64,0,0,14.72-7.93,13.88-24C146.61,23.94,140.31,12,118,10.32Z" style="fill:#b7a87a"/><path d="M45.11,151.38s4.59,1.07,5.49,4.39c.36,1.33.28,3.46-1,6.67,0,0,4.93-3.59,2.9-8.26C51.4,151.52,48.68,150.42,45.11,151.38Z" style="fill:#b7a87a"/><path d="M36.66,24.45s4.28.08,5.17,3.4A7,7,0,0,1,40.59,34s5.46-2.91,3.43-7.58C42.86,23.8,39.88,22.53,36.66,24.45Z" style="fill:#b7a87a"/><path d="M114.48,62.9s-6.89.49-9.54-4.42a6.15,6.15,0,0,1-.44-4.79c.82-2.6,2.91-5.86,5.93-6.32,0,0-8.32-.24-8.52,9.13C101.91,59.19,107.84,65.39,114.48,62.9Z" style="fill:#b7a87a"/></g><path d="M80.54,64.1s.9,67.2,2.82,90.8c.34,4.12,6.71,7,8.41,7.33L50.13,170c-3.35.62-16.66-.22-15.33-10.55s11.34-8,13.52-5.72,2,7.15-.31,9.46-2.71,3.57-.12,3.57,14.91-5.5,15.45-17.37-.12-80.45-.72-82.48-1.09-3.19-6.88-4.84L86.5,46.89S80.42,55.09,80.54,64.1Z" style="fill:#344b3c"/><path d="M111.77,62.23a8.14,8.14,0,0,1-5.62-4.08c-1.83-3.49.81-9.89,5.12-10.25,3.25-.26,7,2.34,5.9,7.31-2.29,13.67,18.6-13.49,5.56-24.43-12.86-12-52.47,22.81-85,32.61a32.62,32.62,0,0,1-20.31-.9c-8.56-3-18.21-10.24-17.35-29C1.45,14.58,18.57,2.25,34,7.72c-4,2.72,2.35,3.24.28,5.2C22.85,22.82,24.56,39.6,30.49,28c2-4.68,7.41-3.68,9.2-.14,6.77,13.34-33.55,17.76-9.4-14.15-14.8,2.49-26.56,25-7.09,33.84C48.13,56.74,78.11,15,110.1,11.32a29.39,29.39,0,0,1,19.69,4.75C154.11,32.54,135.37,67.12,111.77,62.23Z" style="fill:#344b3c"/></g><g id="stripe"><g id="stripe_shadows"><path d="M107.14,137.5s-11.1,2.64-5.29,12.2A10.13,10.13,0,0,1,107.14,137.5Z" style="fill:#b7a87a"/><path d="M253.37,137.5l-14.76,13.81s-29.75-3.31-118,9a33.18,33.18,0,0,1-5.72.28c-16.13-.73-19.63-4.82-19.82-5.06,1.35.41,11.34,5.62,38.93,1.11,68.19-9.6,103.5-7.41,103.5-7.41l14.14-11.76Z" style="fill:#b7a87a"/></g><path id="stripe-2" data-name="stripe" d="M251.67,136.82c-.84,0-11.73,9.57-14.29,11.79-90.87-3.29-148.84,25.07-147.25-2.12.92-7.72,10-14.47,16.18-9.46-11.8,4.09-7.34,15.25,2.18,13.8C201.67,131.25,251.67,136.82,251.67,136.82Z" style="fill:#344b3c"/></g></g><g id="stamp-2" data-name="stamp"><path id="stamp_bg" d="M257,0a10.84,10.84,0,0,1,5.24,1c2.71,1.27,2,1.63,5.52,1.53s6.15-.19,8.25,2.13,1.73,2.19,3.24,3a10.59,10.59,0,0,1,5.94,7.9c.14.9.31,1.11,1.27,1.89s4,3.51,4,9.25c-.07,3.63.85,4,.66,4.27s-1,.89-.68,3.06c.28,1.89.52,8.87-4.34,11.66-4.46,2.17-5.9,2.47-6.18,5.26s-2.77,5-7.76,5.33c-5.41.35-4.91,3.32-10.27,3.33-4.41,0-2.78-1.87-8.87-2.55-3.38-.4-4.34,1.32-8.11-.69a6,6,0,0,1-2.13-1.77c-.88-1.33-.26-1.41-4-3.49-5.14-2.64-2.76-6.3-5.14-8.54,0,0-7.83-6.77-5-9.62,2.1-3,1.61-5.38,2-5.85s.16-1.63-.12-2.76-1.23-9.11,7.74-13.24c1.06-.4,1.43-3.56,3.37-5.19,4-3.58,5.45-1.67,8.07-3S253.57.2,257,0Z" style="fill:#cd2034"/><path id="detail_1" d="M232.36,35.87a5.13,5.13,0,0,1-.14-3.44,14.56,14.56,0,0,0,1-5.14c-.12-1.07-1.13-7.91,2-9.89s5.09-3.07,5.94-5.09,1.49-4.3,6-4.68,7-3.06,10-3c3.49-.24,4,2,9.53,2.17,4.69-.21,5.59-.66,8.59,1.91,0,0-1.32-3.39-6-3.37s-5.45.38-9.06-1.3c-4.7-2.38-10.45,2.17-12.32,2.24s-6,0-7.71,4.74c-1.18,3.14-6.77,5-7.5,8-1.21,3.52.31,5.91-.62,9C231.55,29.9,229.72,34.41,232.36,35.87Z" style="fill:#772e27"/><path id="detail_2" d="M237.35,44a18.83,18.83,0,0,1,1.14,3.62,1.14,1.14,0,0,0,.24.55,11.08,11.08,0,0,0,2.2,2.18,8.14,8.14,0,0,1-.82-2.94C240.05,46,237.35,44,237.35,44Z" style="fill:#772e27"/><path id="detail_3" d="M285.41,32.59a17.59,17.59,0,0,1-1.3,3.22,1,1,0,0,0-.15.53,10.27,10.27,0,0,0,.3,2.82,7.37,7.37,0,0,1,1.12-2.55C286.13,35.6,285.41,32.59,285.41,32.59Z" style="fill:#772e27"/><path id="detail_4" d="M245.17,54.32s1,1.51,6.3,1,5.43,2.52,10.19,2.5c3.8-.1,3.64-3.07,9.56-3.31,9-1.13,5.59-7.19,9-8.28s8.75-5.45,7.46-13.49A18.28,18.28,0,0,0,287,29.5c-.29-.45.06-1.54,0-2.21s-1-5.24-2.12-6a52.64,52.64,0,0,1,.35,5.43c-.27,1.62,1.45,4.36,1.53,6.17.45,13-9.57,10-10.52,15.48,0,0-.16,4.66-6.39,5s-6.18,3.89-10.94,3.22S256.85,53.45,245.17,54.32Z" style="fill:#772e27"/><path id="detail_5" d="M277.82,10.91a23,23,0,0,1,4.44,8.28A8.42,8.42,0,0,0,277.82,10.91Z" style="fill:#772e27"/><path id="detail_6" d="M279.25,41.74s1.87-2.72,2-4.91c0,0,.31-3,.42-3.55s1.27-9.18-3.07-15.78a22.91,22.91,0,0,0-16.95-10,50.47,50.47,0,0,0-6.71.2c-1.13,0-9.5-.94-17.5,13.81-2.37,5.06-2.94,20.13,4.75,25.27,4.45,3.79,13.94,8.35,23.85,4.85,0,0-9.31,3.18-18.09-1.84s-13-14-9.05-27.65c1.43-2.86,3.42-4.62,5.89-7.38s5-5,8.14-5.12,6.37-1.07,9.84-.59S275.18,12.37,279,19.59,281,39.77,279.25,41.74Z" style="fill:#772e27"/><ellipse id="outer_circle" cx="259.08" cy="30.73" rx="20.68" ry="20.61" style="fill:none;stroke:#772e27;stroke-miterlimit:10;stroke-width:0.5px"/><ellipse id="inner_circle" cx="258.84" cy="31.09" rx="13.67" ry="13.85" style="fill:none;stroke:#772e27;stroke-miterlimit:10;stroke-width:0.5px"/><rect x="244.32" y="27.89" width="29.26" height="7.51" style="fill:#cd2034"/><path d="M245.35,20.74l-.26.32.49.39.17.14.07,0s.12-.07.23-.2l0-.06.15.13-.9,1.11-.16-.13,0,0c.1-.13.15-.22.14-.26s0,0,0-.06l-.17-.14-1.27-1-.18-.13-.06,0s-.12.07-.23.2l0,0-.16-.13.9-1.12a1.87,1.87,0,0,1,.59-.51.57.57,0,0,1,.36-.06.75.75,0,0,1,.35.16C245.86,19.69,245.82,20.15,245.35,20.74Zm-1.13-.39.71.58.13-.17a.69.69,0,0,0,.21-.47.58.58,0,0,0-.27-.39.58.58,0,0,0-.4-.17.51.51,0,0,0-.34.21l-.09.12a.25.25,0,0,0-.07.15A.29.29,0,0,0,244.22,20.35Z" style="fill:#772e27"/><path d="M248.81,17.38l-.16.11.43.63a.79.79,0,0,0,.13.18.1.1,0,0,0,0,0c.05,0,.14,0,.28-.13l.08-.05.11.17-1.19.82-.12-.17.05,0q.19-.14.21-.21a.14.14,0,0,0,0-.07s0-.07-.12-.18l-.92-1.35a1.45,1.45,0,0,1-.13-.18l-.06,0s-.14,0-.27.13l0,0-.11-.17,1.27-.88a1.44,1.44,0,0,1,.67-.29.62.62,0,0,1,.55.29.61.61,0,0,1,0,.66,1.77,1.77,0,0,1-.25.3.82.82,0,0,1,.41,0,.69.69,0,0,1,.35.24l.11.1.07.08.13.12a.13.13,0,0,0,.12,0q.14-.09-.06-.39l.16-.11,0,0a.61.61,0,0,1,.13.48.58.58,0,0,1-.28.39.53.53,0,0,1-.73,0l-.31-.36a1.4,1.4,0,0,0-.14-.16.23.23,0,0,0-.12-.06A.38.38,0,0,0,248.81,17.38Zm-.71-.69.43.63.16-.11c.2-.14.32-.26.35-.37a.47.47,0,0,0-.11-.41.52.52,0,0,0-.31-.24.51.51,0,0,0-.37.11l-.08.05a.35.35,0,0,0-.15.16S248,16.61,248.1,16.69Z" style="fill:#772e27"/><path d="M253.29,13.53a1.31,1.31,0,0,1,.94,0,1.41,1.41,0,0,1,.49.37,1.54,1.54,0,0,1,.31.56,1.32,1.32,0,0,1-.13,1.18,1.38,1.38,0,0,1-.76.56,1.31,1.31,0,0,1-1-.08,1.34,1.34,0,0,1-.66-.82,1.56,1.56,0,0,1-.07-.64,1.29,1.29,0,0,1,.19-.59A1.22,1.22,0,0,1,253.29,13.53Zm.06.19a.51.51,0,0,0-.36.39,1.94,1.94,0,0,0,.11.94,2.11,2.11,0,0,0,.47.86.48.48,0,0,0,.53.13.5.5,0,0,0,.36-.43,2,2,0,0,0-.11-.88,2.07,2.07,0,0,0-.48-.87A.48.48,0,0,0,253.35,13.72Z" style="fill:#772e27"/><path d="M259.9,12.62h.15l.05,1.08-.19,0a1.7,1.7,0,0,0-.34-.69.63.63,0,0,0-.5-.22.55.55,0,0,0-.5.31,1.76,1.76,0,0,0-.17.88,1.92,1.92,0,0,0,.19.92.57.57,0,0,0,.55.29.67.67,0,0,0,.52-.22,1.12,1.12,0,0,0,.28-.61l.22.06a1.34,1.34,0,0,1-.38.76,1.19,1.19,0,0,1-.76.25,1.22,1.22,0,0,1-1-.41,1.46,1.46,0,0,1-.36-1,1.44,1.44,0,0,1,.38-1,1.26,1.26,0,0,1,1-.42.91.91,0,0,1,.34,0,.84.84,0,0,1,.32.15Z" style="fill:#772e27"/><path d="M263.21,13.09l2.3.68-.24,1-.18-.06a1.42,1.42,0,0,0,0-.64.47.47,0,0,0-.31-.32c-.05,0-.09,0-.11,0s0,.05-.06.11l-.52,1.75a1.62,1.62,0,0,0-.06.21v.07s.11.09.28.14l.07,0-.06.19-1.4-.41.06-.2.08,0a.53.53,0,0,0,.3,0,.13.13,0,0,0,0-.06,1.42,1.42,0,0,0,.07-.21l.52-1.75a.2.2,0,0,0,0-.13.13.13,0,0,0-.09,0,.48.48,0,0,0-.48.13,1.48,1.48,0,0,0-.34.48l-.18,0Z" style="fill:#772e27"/><path d="M268.22,15l2,1.38-.54.82-.15-.11a1.73,1.73,0,0,0,.11-.53.71.71,0,0,0-.35-.57l-.09-.06q-.18-.12-.27-.09a.59.59,0,0,0-.17.18l-.38.56.05,0a.48.48,0,0,0,.36.08.69.69,0,0,0,.35-.24l.17.11-.72,1.05-.17-.11a.61.61,0,0,0,.1-.41.44.44,0,0,0-.21-.31l-.05,0-.47.69a.3.3,0,0,0-.07.21.12.12,0,0,0,0,.08l.15.12L268,18a.76.76,0,0,0,.55.14,1.32,1.32,0,0,0,.61-.33l.16.11-.61.81-2-1.39.11-.17.05,0q.21.15.27.12l.06,0,.12-.19.93-1.35.12-.18a.14.14,0,0,0,0-.06c0-.05-.08-.12-.22-.22l0,0Z" style="fill:#772e27"/><path d="M272.19,20.41l-.12-.16-.6.46a1.06,1.06,0,0,0-.18.14.1.1,0,0,0,0,0,.56.56,0,0,0,.14.27l.06.08-.16.12-.88-1.15.16-.12,0,0c.1.13.17.2.22.2l.06,0,.18-.13,1.3-1,.17-.13a.21.21,0,0,0,0-.06c0-.05,0-.14-.14-.27l0,0,.16-.13.94,1.23a1.41,1.41,0,0,1,.32.65.62.62,0,0,1-.25.57.63.63,0,0,1-.67.07,1.53,1.53,0,0,1-.31-.24.78.78,0,0,1,0,.42.71.71,0,0,1-.22.36l-.09.11-.08.07c-.07.08-.11.12-.11.15a.09.09,0,0,0,0,.11c.06.09.19.06.38-.08l.12.15,0,0a.68.68,0,0,1-.46.16.6.6,0,0,1-.41-.27.53.53,0,0,1,0-.73l.35-.33a.51.51,0,0,0,.15-.15.23.23,0,0,0,.06-.12A.42.42,0,0,0,272.19,20.41Zm.65-.75-.6.46.12.16a.83.83,0,0,0,.38.33.46.46,0,0,0,.4-.13.51.51,0,0,0,.23-.32.5.5,0,0,0-.13-.37l-.05-.07a.19.19,0,0,0-.35-.06Z" style="fill:#772e27"/><path d="M247.77,42.4l.12.13-.87.81-.14-.15a1.43,1.43,0,0,0,.32-.74.75.75,0,0,0-.2-.62.56.56,0,0,0-.27-.18.61.61,0,0,0-.33,0,2.09,2.09,0,0,0-.93.53,2.41,2.41,0,0,0-.62.76.55.55,0,0,0,0,.33.58.58,0,0,0,.14.31.6.6,0,0,0,.41.2.74.74,0,0,0,.46-.19l0,0c.11-.1.17-.17.17-.22s-.06-.13-.17-.26l0,0,.17-.15.92,1-.17.15c-.12-.14-.21-.21-.25-.21l-.07,0-.19.16-.63.56-.14-.15.17-.41a2.39,2.39,0,0,1-.36,0,1.24,1.24,0,0,1-.56-.39,1.3,1.3,0,0,1-.35-1,1.52,1.52,0,0,1,.57-1,1.56,1.56,0,0,1,1.08-.44,1.53,1.53,0,0,1,1.34.83,2,2,0,0,1,.11.4Z" style="fill:#772e27"/><path d="M249.07,46.2l1.85-1.47.26.15-.38,2.72a.62.62,0,0,0,0,.25A.45.45,0,0,0,251,48l-.11.2-1.21-.68.11-.2.06,0a.37.37,0,0,0,.22.07s.06-.09.07-.21l.07-.43-.85-.48-.13.11a.54.54,0,0,0-.17.17.24.24,0,0,0,0,.23.6.6,0,0,0,.23.21l-.11.2-1-.56.11-.2a.44.44,0,0,0,.34,0A1.65,1.65,0,0,0,249.07,46.2Zm1.19.3.16-1-.83.67Z" style="fill:#772e27"/><path d="M254.19,46.32l1.24.22.29,1.86.88-1.65,1.26.23,0,.22h0c-.19,0-.3,0-.33,0a.09.09,0,0,0,0,.06s0,.1-.05.24L257,49.26a1.73,1.73,0,0,1,0,.24.14.14,0,0,0,0,.07s.12.09.31.12h0l0,.22-1.48-.27,0-.22h0q.29,0,.33,0l0-.06s0-.1.05-.24l.36-2-1.32,2.47-.2,0-.42-2.73-.3,1.69a1.77,1.77,0,0,0-.05.38.29.29,0,0,0,.05.19.44.44,0,0,0,.3.17l0,.22-1.1-.2,0-.22A.45.45,0,0,0,254,49a.38.38,0,0,0,.11-.16,2.39,2.39,0,0,0,.09-.38l.26-1.47a1.7,1.7,0,0,0,0-.23.19.19,0,0,0,0-.08s-.13-.08-.31-.12h0Z" style="fill:#772e27"/><path d="M260,47.17l0-.22,1.5-.23a2.86,2.86,0,0,1,.53,0,.94.94,0,0,1,.36.08.63.63,0,0,1,.26.2.71.71,0,0,1,.13.31.62.62,0,0,1-.28.62,1.45,1.45,0,0,1-.39.17,1.53,1.53,0,0,1,.47.06.73.73,0,0,1,.49,1,.79.79,0,0,1-.26.31,2.15,2.15,0,0,1-.79.25l-1.58.23,0-.22h.06c.18,0,.28-.06.31-.11a.15.15,0,0,0,0-.07s0-.1,0-.24l-.27-1.77a1.73,1.73,0,0,0,0-.24.09.09,0,0,0,0-.07.52.52,0,0,0-.33,0Zm1.14.07.13.87.19,0a.73.73,0,0,0,.46-.19.56.56,0,0,0,.13-.5.52.52,0,0,0-.2-.36.54.54,0,0,0-.41-.08l-.11,0a.25.25,0,0,0-.17.08A.34.34,0,0,0,261.14,47.24Zm.44,1-.27,0,.14.92a.76.76,0,0,0,0,.18s.11.07.24,0l.12,0a.6.6,0,0,0,.39-.18.71.71,0,0,0-.17-1A.89.89,0,0,0,261.58,48.29Z" style="fill:#772e27"/><path d="M267.89,46.48l.18-.09.45,1-2.37,1.16-.09-.2.05,0c.16-.08.25-.15.26-.2s0,0,0-.07a1.82,1.82,0,0,0-.1-.22l-.79-1.61a1.37,1.37,0,0,0-.11-.21l-.05-.06c-.05,0-.15,0-.32.09l-.05,0-.1-.21,1.4-.68.1.2-.08,0c-.17.08-.26.15-.27.2a.2.2,0,0,0,0,.07l.1.22.83,1.68c.05.11.1.17.16.18a.12.12,0,0,0,.1,0l.19-.08.07,0a.8.8,0,0,0,.46-.57A1.71,1.71,0,0,0,267.89,46.48Z" style="fill:#772e27"/><path d="M269,43.49l1.88-1.86.77.75-.15.14a1.85,1.85,0,0,0-.54-.22.72.72,0,0,0-.69.25l-.08.07a.39.39,0,0,0-.15.28.61.61,0,0,0,.16.22l.53.53,0,0a.46.46,0,0,0,.15-.37.69.69,0,0,0-.18-.43l.15-.15,1,1-.15.15a.69.69,0,0,0-.42-.19.44.44,0,0,0-.37.15l-.05.05.64.65a.33.33,0,0,0,.21.12.19.19,0,0,0,.1,0l.15-.13.08-.08a.79.79,0,0,0,.26-.56,1.34,1.34,0,0,0-.23-.72l.15-.15.75.82-1.9,1.88-.16-.16,0,0c.13-.13.2-.22.19-.27a.09.09,0,0,0,0-.06L271,44.9l-1.26-1.28-.17-.16-.07,0c-.05,0-.14.06-.27.19l0,0Z" style="fill:#772e27"/><circle cx="258.6" cy="31.09" r="9.72" style="fill:#772e27"/><circle cx="258.6" cy="31.09" r="10.56" style="fill:#772e27"/><circle cx="258.6" cy="31.09" r="9.43" style="fill:#cd2034"/><circle cx="258.6" cy="31.09" r="8.32" style="fill:#772e27"/><circle cx="258.6" cy="31.09" r="7.24" style="fill:#cd2034"/><circle cx="258.6" cy="31.09" r="6" style="fill:#772e27"/><circle cx="258.6" cy="31.09" r="4.79" style="fill:#cd2034"/><circle cx="258.6" cy="31.09" r="3.62" style="fill:#772e27"/><circle cx="258.6" cy="31.09" r="2.63" style="fill:#cd2034"/><path d="M241.8,29.69h.2v3.55a.36.36,0,0,0,0,.09c0,.05.19.08.46.08h.18v.31h-2.27v-.31h.18a.85.85,0,0,0,.48-.08.32.32,0,0,0,0-.09s0-.14,0-.34v-2a.74.74,0,0,0-.07-.41,1,1,0,0,0-.44-.07h-.24v-.32A2.42,2.42,0,0,0,241.8,29.69Z" style="fill:#772e27"/><path d="M245.41,31.85a1.07,1.07,0,0,1-.83.37,1.09,1.09,0,0,1-.81-.33,1.16,1.16,0,0,1-.32-.83,1.27,1.27,0,0,1,.4-1,1.5,1.5,0,0,1,2.21.21,2.06,2.06,0,0,1,.35,1.23,2.73,2.73,0,0,1-.43,1.59,1.51,1.51,0,0,1-1.36.69,1.35,1.35,0,0,1-.77-.2.62.62,0,0,1-.29-.53.6.6,0,0,1,.16-.41.53.53,0,0,1,.38-.16.46.46,0,0,1,.35.13.44.44,0,0,1,.13.33.59.59,0,0,1-.11.33.21.21,0,0,0,0,.1c0,.08.07.11.2.11.45,0,.7-.4.77-1.21C245.4,32.17,245.41,32,245.41,31.85ZM244.92,30c-.32,0-.49.31-.49.94a1.66,1.66,0,0,0,.1.62.55.55,0,0,0,.16.18.44.44,0,0,0,.22.07.4.4,0,0,0,.35-.23,1.2,1.2,0,0,0,.13-.59,1.85,1.85,0,0,0-.13-.74A.36.36,0,0,0,244.92,30Z" style="fill:#772e27"/><path d="M262.61,32.75a2.28,2.28,0,0,1-.32,1,1.85,1.85,0,0,1-.67.71,1.78,1.78,0,0,1-.93.22,2.25,2.25,0,0,1-1.64-.69,3.73,3.73,0,0,1-2.2.69A2.39,2.39,0,0,1,255,34a1.94,1.94,0,0,1-.56-1.37,2.2,2.2,0,0,1,1.23-1.94,7,7,0,0,1,.87-.43,3.55,3.55,0,0,1-.4-1.51,1.81,1.81,0,0,1,.61-1.38,2.33,2.33,0,0,1,1.63-.55,2.2,2.2,0,0,1,1.38.41,1.32,1.32,0,0,1,.52,1.08,1.47,1.47,0,0,1-.59,1.17,5.14,5.14,0,0,1-1.24.67c.23.39.51.84.84,1.34a8,8,0,0,0,.62.85,1.7,1.7,0,0,0,.5-1c0-.33-.31-.5-.92-.51v-.57h2.84v.57a1.63,1.63,0,0,0-.83.2,2,2,0,0,0-.56.77c-.22.4-.44.75-.65,1.06a1.39,1.39,0,0,0,1.06.68c.35,0,.6-.29.72-.87Z" style="fill:#cd2034;stroke:#cd2034;stroke-miterlimit:10;stroke-width:2px"/><path d="M259.51,30.23h2.84v.56a1.65,1.65,0,0,0-.82.21,2,2,0,0,0-.57.77,11.49,11.49,0,0,1-.65,1.05,1.38,1.38,0,0,0,1.06.69q.53,0,.72-.87l.52.11a2.41,2.41,0,0,1-.31,1,2.09,2.09,0,0,1-.67.71,2,2,0,0,1-.94.21,2.24,2.24,0,0,1-1.64-.68,3.73,3.73,0,0,1-2.2.69A2.41,2.41,0,0,1,255,34a2,2,0,0,1-.56-1.38,2.19,2.19,0,0,1,1.24-1.93,6.65,6.65,0,0,1,.86-.44,3.51,3.51,0,0,1-.4-1.5,1.78,1.78,0,0,1,.61-1.38,2.33,2.33,0,0,1,1.63-.55,2.14,2.14,0,0,1,1.38.41,1.32,1.32,0,0,1,.52,1.08,1.46,1.46,0,0,1-.6,1.17,5.31,5.31,0,0,1-1.22.67c.23.39.5.84.83,1.34a8,8,0,0,0,.62.85,1.7,1.7,0,0,0,.5-1c0-.33-.31-.5-.92-.51Zm-2.7.53a1.16,1.16,0,0,0-.58,1,2.13,2.13,0,0,0,.24.91A1.62,1.62,0,0,0,258,33.78a1.16,1.16,0,0,0,.68-.23A14.11,14.11,0,0,1,256.81,30.76Zm1.37-1.11.06,0,0,0,0,0h0a1.31,1.31,0,0,0,.8-1.23,1.09,1.09,0,0,0-.23-.72.7.7,0,0,0-.58-.28.67.67,0,0,0-.52.22.79.79,0,0,0-.21.56A3.39,3.39,0,0,0,258.18,29.65Z" style="fill:#772e27"/><path d="M273.76,30.56v1.75h.56v.38h-.56v.55a.18.18,0,0,0,0,.09c0,.06.18.08.4.08h.07v.31h-1.94v-.31h.06c.25,0,.39,0,.43-.08a.36.36,0,0,0,0-.09v-.55h-1.54v-.42l2.08-2.58h.39Q273.76,30.32,273.76,30.56Zm-2,1.75h1.12V30.89Z" style="fill:#772e27"/><path d="M276,31.67a1,1,0,0,1,.37-.29,1.08,1.08,0,0,1,.46-.09,1.11,1.11,0,0,1,.83.32,1.17,1.17,0,0,1,.32.84,1.29,1.29,0,0,1-.41,1,1.48,1.48,0,0,1-1,.38,1.34,1.34,0,0,1-1.12-.52A2,2,0,0,1,275,32a2.6,2.6,0,0,1,.49-1.64,1.53,1.53,0,0,1,1.29-.65,1.23,1.23,0,0,1,.78.22.68.68,0,0,1,.29.58.51.51,0,0,1-.14.37.56.56,0,0,1-.39.14.52.52,0,0,1-.36-.12.42.42,0,0,1-.14-.32.55.55,0,0,1,.11-.33.25.25,0,0,0,0-.11c0-.09-.08-.13-.25-.13a.53.53,0,0,0-.47.32,2.25,2.25,0,0,0-.25.92C276,31.43,276,31.57,276,31.67Zm.54,0a.4.4,0,0,0-.29.1.53.53,0,0,0-.17.28,2.82,2.82,0,0,0,0,.52,1.51,1.51,0,0,0,.12.67.4.4,0,0,0,.36.24c.31,0,.47-.34.47-1C277,32,276.8,31.73,276.5,31.72Z" style="fill:#772e27"/></g></g></g></svg>