<svg xmlns="http://www.w3.org/2000/svg" viewBox="0 0 290.92 170.01"><g id="Layer_2" data-name="Layer 2"><g id="White"><g id="stamp"><path id="stamp_bg" d="M256.78,0A10.84,10.84,0,0,1,262,1c2.71,1.27,2,1.63,5.52,1.53s6.15-.19,8.25,2.13,1.73,2.19,3.24,3a10.59,10.59,0,0,1,5.94,7.9c.14.9.31,1.11,1.27,1.89s4,3.51,4,9.25c-.07,3.63.85,4,.66,4.27s-1,.89-.68,3.06c.28,1.89.52,8.87-4.34,11.66-4.46,2.17-5.9,2.47-6.18,5.26s-2.77,5-7.77,5.33c-5.4.35-4.9,3.32-10.26,3.33-4.41,0-2.78-1.87-8.87-2.55-3.38-.4-4.34,1.32-8.11-.69a6,6,0,0,1-2.13-1.77c-.88-1.33-.26-1.41-4-3.49-5.14-2.64-2.76-6.3-5.14-8.54,0,0-7.83-6.77-5-9.62,2.1-3,1.61-5.38,2-5.85s.16-1.63-.12-2.76-1.23-9.11,7.74-13.24c1.06-.4,1.43-3.56,3.37-5.19,4-3.58,5.45-1.67,8.07-3S253.38.2,256.78,0Z" style="fill:#cd2034"/><path id="detail_1" d="M232.17,35.87a5.13,5.13,0,0,1-.14-3.44,14.56,14.56,0,0,0,1-5.14c-.12-1.07-1.13-7.91,2-9.89s5.09-3.07,5.94-5.09,1.49-4.3,6-4.68,7-3.06,10-3c3.49-.24,4,2,9.53,2.17,4.69-.21,5.59-.66,8.58,1.91,0,0-1.31-3.39-6-3.37s-5.45.38-9.06-1.3c-4.7-2.38-10.45,2.17-12.32,2.24s-6,0-7.71,4.74c-1.18,3.14-6.77,5-7.5,8-1.21,3.52.31,5.91-.62,9C231.36,29.9,229.53,34.41,232.17,35.87Z" style="fill:#772e27"/><path id="detail_2" d="M237.16,44a18.83,18.83,0,0,1,1.14,3.62,1.14,1.14,0,0,0,.24.55,11.08,11.08,0,0,0,2.2,2.18,8.14,8.14,0,0,1-.82-2.94C239.86,46,237.16,44,237.16,44Z" style="fill:#772e27"/><path id="detail_3" d="M285.22,32.59a17.59,17.59,0,0,1-1.3,3.22,1,1,0,0,0-.15.53,10.27,10.27,0,0,0,.3,2.82,7.37,7.37,0,0,1,1.12-2.55C285.94,35.6,285.22,32.59,285.22,32.59Z" style="fill:#772e27"/><path id="detail_4" d="M245,54.32s1,1.51,6.3,1,5.43,2.52,10.19,2.5c3.8-.1,3.64-3.07,9.56-3.31,9-1.13,5.59-7.19,9-8.28s8.75-5.45,7.45-13.49a18.12,18.12,0,0,0-.68-3.26c-.29-.45.06-1.54,0-2.21s-1-5.24-2.12-6a52.64,52.64,0,0,1,.35,5.43c-.27,1.62,1.45,4.36,1.53,6.17.45,13-9.57,10-10.52,15.48,0,0-.16,4.66-6.39,5s-6.18,3.89-10.94,3.22S256.66,53.45,245,54.32Z" style="fill:#772e27"/><path id="detail_5" d="M277.63,10.91a23,23,0,0,1,4.44,8.28A8.42,8.42,0,0,0,277.63,10.91Z" style="fill:#772e27"/><path id="detail_6" d="M279.06,41.74s1.86-2.72,2-4.91c0,0,.31-3,.42-3.55s1.27-9.18-3.07-15.78a22.91,22.91,0,0,0-16.95-10,50.38,50.38,0,0,0-6.71.2c-1.13,0-9.5-.94-17.5,13.81-2.37,5.06-2.94,20.13,4.75,25.27,4.45,3.79,13.94,8.35,23.85,4.85,0,0-9.31,3.18-18.09-1.84s-13-14-9.06-27.65c1.44-2.86,3.43-4.62,5.9-7.38s5-5,8.14-5.12,6.37-1.07,9.84-.59S275,12.37,278.79,19.59,280.82,39.77,279.06,41.74Z" style="fill:#772e27"/><ellipse id="outer_circle" cx="258.89" cy="30.73" rx="20.68" ry="20.61" style="fill:none;stroke:#772e27;stroke-miterlimit:10;stroke-width:0.5px"/><ellipse id="inner_circle" cx="258.65" cy="31.09" rx="13.67" ry="13.85" style="fill:none;stroke:#772e27;stroke-miterlimit:10;stroke-width:0.5px"/><rect x="244.13" y="27.89" width="29.26" height="7.51" style="fill:#cd2034"/><path d="M245.16,20.74l-.26.32.49.39.17.14.06,0s.13-.07.23-.2l.06-.06.15.13-.9,1.11-.16-.13,0,0c.1-.13.15-.22.14-.26s0,0,0-.06L245,22l-1.27-1-.18-.13-.06,0c-.05,0-.12.07-.23.2l0,0-.16-.13.9-1.12a1.87,1.87,0,0,1,.59-.51.56.56,0,0,1,.36-.06.8.8,0,0,1,.35.16C245.67,19.69,245.63,20.15,245.16,20.74ZM244,20.35l.71.58.13-.17a.69.69,0,0,0,.21-.47.58.58,0,0,0-.27-.39.58.58,0,0,0-.4-.17.51.51,0,0,0-.34.21l-.09.12a.25.25,0,0,0-.07.15A.29.29,0,0,0,244,20.35Z" style="fill:#772e27"/><path d="M248.62,17.38l-.16.11.43.63a.79.79,0,0,0,.13.18.1.1,0,0,0,0,0c.05,0,.14,0,.28-.13l.08-.05.11.17-1.19.82-.12-.17.05,0q.19-.14.21-.21a.14.14,0,0,0,0-.07l-.12-.18-.92-1.35a1.45,1.45,0,0,1-.13-.18l-.06,0s-.14,0-.27.13l-.05,0-.11-.17,1.27-.88a1.44,1.44,0,0,1,.67-.29.62.62,0,0,1,.55.29.61.61,0,0,1,0,.66,1.29,1.29,0,0,1-.24.3.82.82,0,0,1,.41,0,.69.69,0,0,1,.35.24l.11.1.07.08.13.12a.13.13,0,0,0,.12,0q.14-.09-.06-.39l.16-.11,0,0a.61.61,0,0,1,.13.48.58.58,0,0,1-.28.39.53.53,0,0,1-.73,0l-.31-.36a1.4,1.4,0,0,0-.14-.16.23.23,0,0,0-.12-.06A.38.38,0,0,0,248.62,17.38Zm-.71-.69.43.63.16-.11c.2-.14.32-.26.35-.37a.5.5,0,0,0-.11-.41.52.52,0,0,0-.31-.24.51.51,0,0,0-.37.11l-.08.05a.35.35,0,0,0-.15.16S247.85,16.61,247.91,16.69Z" style="fill:#772e27"/><path d="M253.1,13.53a1.31,1.31,0,0,1,.94,0,1.41,1.41,0,0,1,.49.37,1.54,1.54,0,0,1,.31.56,1.32,1.32,0,0,1-.13,1.18,1.38,1.38,0,0,1-.76.56,1.31,1.31,0,0,1-1-.08,1.34,1.34,0,0,1-.66-.82,1.56,1.56,0,0,1-.07-.64,1.29,1.29,0,0,1,.19-.59A1.22,1.22,0,0,1,253.1,13.53Zm.06.19a.51.51,0,0,0-.36.39,1.94,1.94,0,0,0,.11.94,2.11,2.11,0,0,0,.47.86.48.48,0,0,0,.53.13.52.52,0,0,0,.36-.43,2,2,0,0,0-.11-.88,2.07,2.07,0,0,0-.48-.87A.48.48,0,0,0,253.16,13.72Z" style="fill:#772e27"/><path d="M259.71,12.62h.15l.05,1.08-.19,0a1.7,1.7,0,0,0-.34-.69.63.63,0,0,0-.5-.22.55.55,0,0,0-.5.31,1.76,1.76,0,0,0-.17.88,1.92,1.92,0,0,0,.19.92.57.57,0,0,0,.55.29.67.67,0,0,0,.52-.22,1.12,1.12,0,0,0,.28-.61l.22.06a1.34,1.34,0,0,1-.38.76,1.19,1.19,0,0,1-.76.25,1.22,1.22,0,0,1-1-.41,1.41,1.41,0,0,1-.36-1,1.44,1.44,0,0,1,.38-1,1.26,1.26,0,0,1,1-.42,1.09,1.09,0,0,1,.66.19Z" style="fill:#772e27"/><path d="M263,13.09l2.3.68-.24,1-.19-.06a1.3,1.3,0,0,0,0-.64.47.47,0,0,0-.31-.32c-.05,0-.09,0-.11,0s0,.05-.06.11l-.52,1.75a1.62,1.62,0,0,0-.06.21.16.16,0,0,0,0,.07s.11.09.28.14l.07,0-.06.19-1.4-.41.06-.2.08,0a.53.53,0,0,0,.3,0,.13.13,0,0,0,0-.06s0-.08.06-.21l.53-1.75a.2.2,0,0,0,0-.13.13.13,0,0,0-.09,0,.48.48,0,0,0-.48.13,1.48,1.48,0,0,0-.34.48l-.18,0Z" style="fill:#772e27"/><path d="M268,15l2,1.38-.54.82-.15-.11a1.73,1.73,0,0,0,.11-.53.71.71,0,0,0-.35-.57L269,16q-.18-.12-.27-.09a.59.59,0,0,0-.17.18l-.38.56.05,0a.48.48,0,0,0,.36.08.69.69,0,0,0,.35-.24l.17.11-.73,1.05-.16-.11a.61.61,0,0,0,.1-.41.44.44,0,0,0-.21-.31l-.05,0-.47.69a.3.3,0,0,0-.07.21.12.12,0,0,0,0,.08l.15.12.09.06a.75.75,0,0,0,.55.14,1.32,1.32,0,0,0,.61-.33l.16.11-.61.81-2-1.39.11-.17.05,0q.21.15.27.12l.06,0,.12-.19L268,15.7l.12-.18,0-.06c0-.05-.08-.12-.22-.22l0,0Z" style="fill:#772e27"/><path d="M272,20.41l-.12-.16-.6.46a1.06,1.06,0,0,0-.18.14.1.1,0,0,0,0,0,.56.56,0,0,0,.14.27l.06.08-.16.12-.88-1.15.16-.12,0,0c.1.13.17.2.22.2l.06,0,.18-.13,1.3-1,.17-.13a.21.21,0,0,0,0-.06c0-.05,0-.14-.14-.27l0,0,.16-.13.94,1.23a1.41,1.41,0,0,1,.32.65.62.62,0,0,1-.25.57.63.63,0,0,1-.67.07,1.53,1.53,0,0,1-.31-.24.78.78,0,0,1,0,.42.71.71,0,0,1-.22.36l-.09.11-.08.07c-.07.08-.11.12-.11.15a.11.11,0,0,0,0,.11c.07.09.2.06.39-.08l.12.15,0,0a.68.68,0,0,1-.46.16.6.6,0,0,1-.41-.27.52.52,0,0,1,0-.73l.35-.33a.51.51,0,0,0,.15-.15.23.23,0,0,0,.06-.12A.42.42,0,0,0,272,20.41Zm.65-.75-.6.46.12.16a.83.83,0,0,0,.38.33.46.46,0,0,0,.4-.13.51.51,0,0,0,.23-.32.5.5,0,0,0-.13-.37l-.05-.07a.19.19,0,0,0-.35-.06Z" style="fill:#772e27"/><path d="M247.58,42.4l.12.13-.87.81-.14-.15a1.43,1.43,0,0,0,.32-.74.75.75,0,0,0-.2-.62.56.56,0,0,0-.27-.18.62.62,0,0,0-.33,0,2.09,2.09,0,0,0-.93.53,2.41,2.41,0,0,0-.62.76.55.55,0,0,0,0,.33.59.59,0,0,0,.55.51.74.74,0,0,0,.46-.19l0,0c.11-.1.17-.17.17-.22s-.06-.13-.17-.26l0,0,.17-.15.92,1-.17.15c-.12-.14-.21-.21-.25-.21l-.07,0L246,44l-.63.56-.14-.15.17-.41a2.39,2.39,0,0,1-.36,0,1.24,1.24,0,0,1-.56-.39,1.3,1.3,0,0,1-.35-1,1.52,1.52,0,0,1,.57-1,1.56,1.56,0,0,1,1.08-.44,1.53,1.53,0,0,1,1.34.83,2,2,0,0,1,.11.4Z" style="fill:#772e27"/><path d="M248.88,46.2l1.85-1.47.26.15-.38,2.72a.62.62,0,0,0,0,.25.48.48,0,0,0,.18.16l-.11.2-1.2-.68.11-.2.06,0a.37.37,0,0,0,.22.07s.06-.09.07-.21l.07-.43-.85-.48-.13.11a.54.54,0,0,0-.17.17.24.24,0,0,0,0,.23.6.6,0,0,0,.23.21l-.11.2-1-.56.11-.2a.44.44,0,0,0,.34,0A1.65,1.65,0,0,0,248.88,46.2Zm1.19.3.16-1-.84.67Z" style="fill:#772e27"/><path d="M254,46.32l1.24.22.29,1.86.88-1.65,1.26.23,0,.22h0c-.19,0-.3,0-.34,0a.16.16,0,0,0,0,.06s0,.1-.05.24l-.32,1.76c0,.14,0,.22,0,.24a.14.14,0,0,0,0,.07s.12.09.31.12h0l0,.22-1.48-.27,0-.22h0q.28,0,.33,0l0-.06s0-.1.05-.24l.36-2-1.32,2.47-.21,0-.41-2.73-.3,1.69a1.77,1.77,0,0,0-.05.38.29.29,0,0,0,.05.19.44.44,0,0,0,.3.17l0,.22-1.1-.2,0-.22a.45.45,0,0,0,.34-.05.38.38,0,0,0,.11-.16,2.39,2.39,0,0,0,.09-.38l.26-1.47a1.7,1.7,0,0,0,0-.23.19.19,0,0,0,0-.08s-.13-.08-.31-.12h0Z" style="fill:#772e27"/><path d="M259.81,47.17l0-.22,1.5-.23a2.86,2.86,0,0,1,.53,0,.94.94,0,0,1,.36.08.63.63,0,0,1,.26.2.71.71,0,0,1,.13.31.62.62,0,0,1-.28.62,1.45,1.45,0,0,1-.39.17,1.53,1.53,0,0,1,.47.06.69.69,0,0,1,.54.59.78.78,0,0,1,0,.4.79.79,0,0,1-.26.31,2.15,2.15,0,0,1-.79.25l-1.58.23,0-.22h.06c.18,0,.28-.06.31-.11a.15.15,0,0,0,0-.07s0-.1,0-.24l-.27-1.77a1.73,1.73,0,0,0,0-.24.15.15,0,0,0,0-.07.52.52,0,0,0-.33,0Zm1.14.07.13.87.19,0a.73.73,0,0,0,.46-.19.53.53,0,0,0,.12-.5.48.48,0,0,0-.19-.36.54.54,0,0,0-.41-.08l-.11,0a.23.23,0,0,0-.17.08A.34.34,0,0,0,261,47.24Zm.43,1-.26,0,.14.92a.76.76,0,0,0,0,.18s.11.07.24,0l.12,0a.53.53,0,0,0,.5-.68.57.57,0,0,0-.28-.46A.92.92,0,0,0,261.38,48.29Z" style="fill:#772e27"/><path d="M267.69,46.48l.19-.09.45,1L266,48.57l-.1-.2.06,0c.16-.08.25-.15.26-.2a.2.2,0,0,0,0-.07,1.82,1.82,0,0,0-.1-.22l-.79-1.61a1.37,1.37,0,0,0-.11-.21l-.05-.06c-.05,0-.16,0-.32.09l-.05,0-.1-.21,1.4-.68.1.2-.08,0c-.17.08-.26.15-.27.2a.2.2,0,0,0,0,.07l.1.22.83,1.68c.05.11.1.17.16.18a.11.11,0,0,0,.1,0l.19-.08.07,0a.8.8,0,0,0,.46-.57A1.55,1.55,0,0,0,267.69,46.48Z" style="fill:#772e27"/><path d="M268.81,43.49l1.88-1.86.77.75-.15.14a1.85,1.85,0,0,0-.54-.22.72.72,0,0,0-.69.25l-.08.07a.39.39,0,0,0-.15.28.61.61,0,0,0,.16.22l.53.53,0,0a.47.47,0,0,0,.16-.37.69.69,0,0,0-.18-.43l.15-.15,1,1-.15.15a.71.71,0,0,0-.43-.19.47.47,0,0,0-.37.15l0,.05.64.65a.33.33,0,0,0,.21.12.19.19,0,0,0,.1,0l.15-.13.08-.08a.79.79,0,0,0,.26-.56,1.34,1.34,0,0,0-.23-.72l.15-.15.75.82-1.9,1.88-.16-.16,0,0c.13-.13.2-.22.19-.27a.09.09,0,0,0,0-.06l-.17-.18-1.26-1.28-.17-.16-.07,0s-.14.06-.27.19l0,0Z" style="fill:#772e27"/><circle cx="258.41" cy="31.09" r="9.72" style="fill:#772e27"/><circle cx="258.41" cy="31.09" r="10.56" style="fill:#772e27"/><circle cx="258.41" cy="31.09" r="9.43" style="fill:#cd2034"/><circle cx="258.41" cy="31.09" r="8.32" style="fill:#772e27"/><circle cx="258.41" cy="31.09" r="7.24" style="fill:#cd2034"/><circle cx="258.41" cy="31.09" r="6" style="fill:#772e27"/><circle cx="258.41" cy="31.09" r="4.79" style="fill:#cd2034"/><circle cx="258.41" cy="31.09" r="3.62" style="fill:#772e27"/><circle cx="258.41" cy="31.09" r="2.63" style="fill:#cd2034"/><path d="M241.61,29.69h.2v3.55a.36.36,0,0,0,0,.09c0,.05.19.08.46.08h.18v.31h-2.27v-.31h.18c.27,0,.43,0,.47-.08a.18.18,0,0,0,0-.09V30.88a.78.78,0,0,0-.06-.41,1,1,0,0,0-.44-.07h-.24v-.32A2.42,2.42,0,0,0,241.61,29.69Z" style="fill:#772e27"/><path d="M245.22,31.85a1.14,1.14,0,0,1-1.64,0,1.16,1.16,0,0,1-.32-.83,1.27,1.27,0,0,1,.4-1,1.5,1.5,0,0,1,2.21.21,2.06,2.06,0,0,1,.35,1.23,2.73,2.73,0,0,1-.43,1.59,1.51,1.51,0,0,1-1.36.69,1.35,1.35,0,0,1-.77-.2.62.62,0,0,1-.29-.53.56.56,0,0,1,.16-.41.53.53,0,0,1,.38-.16.48.48,0,0,1,.35.13.44.44,0,0,1,.13.33.68.68,0,0,1-.11.33.21.21,0,0,0,0,.1c0,.08.07.11.2.11.45,0,.7-.4.77-1.21C245.21,32.17,245.22,32,245.22,31.85ZM244.73,30c-.32,0-.49.31-.49.94a1.66,1.66,0,0,0,.1.62.55.55,0,0,0,.16.18.44.44,0,0,0,.22.07.4.4,0,0,0,.35-.23,1.21,1.21,0,0,0,.12-.59,1.87,1.87,0,0,0-.12-.74A.36.36,0,0,0,244.73,30Z" style="fill:#772e27"/><path d="M262.42,32.75a2.28,2.28,0,0,1-.32,1,1.85,1.85,0,0,1-.67.71,1.78,1.78,0,0,1-.93.22,2.23,2.23,0,0,1-1.64-.69,3.75,3.75,0,0,1-2.2.69,2.39,2.39,0,0,1-1.83-.65,1.94,1.94,0,0,1-.56-1.37,2.2,2.2,0,0,1,1.23-1.94,6.4,6.4,0,0,1,.87-.43,3.55,3.55,0,0,1-.4-1.51,1.81,1.81,0,0,1,.61-1.38,2.33,2.33,0,0,1,1.63-.55,2.2,2.2,0,0,1,1.38.41,1.32,1.32,0,0,1,.52,1.08,1.47,1.47,0,0,1-.59,1.17,5.14,5.14,0,0,1-1.24.67c.23.39.51.84.84,1.34a8,8,0,0,0,.62.85,1.7,1.7,0,0,0,.5-1c0-.33-.31-.5-.92-.51v-.57h2.84v.57a1.63,1.63,0,0,0-.83.2,2,2,0,0,0-.56.77,10.91,10.91,0,0,1-.66,1.06,1.42,1.42,0,0,0,1.07.68q.52,0,.72-.87Z" style="fill:#cd2034;stroke:#cd2034;stroke-miterlimit:10;stroke-width:2px"/><path d="M259.32,30.23h2.84v.56a1.65,1.65,0,0,0-.82.21,1.91,1.91,0,0,0-.57.77,11.49,11.49,0,0,1-.65,1.05,1.38,1.38,0,0,0,1.06.69q.52,0,.72-.87l.52.11a2.41,2.41,0,0,1-.31,1,2,2,0,0,1-.68.71,1.88,1.88,0,0,1-.93.21,2.22,2.22,0,0,1-1.64-.68,3.73,3.73,0,0,1-2.2.69,2.41,2.41,0,0,1-1.83-.65,2,2,0,0,1-.56-1.38,2.19,2.19,0,0,1,1.24-1.93,6,6,0,0,1,.86-.44,3.54,3.54,0,0,1-.41-1.5,1.79,1.79,0,0,1,.62-1.38,2.33,2.33,0,0,1,1.63-.55,2.14,2.14,0,0,1,1.38.41,1.32,1.32,0,0,1,.52,1.08,1.46,1.46,0,0,1-.6,1.17,5.31,5.31,0,0,1-1.22.67c.23.39.5.84.83,1.34a8,8,0,0,0,.62.85,1.7,1.7,0,0,0,.5-1c0-.33-.31-.5-.92-.51Zm-2.7.53a1.16,1.16,0,0,0-.58,1,2.13,2.13,0,0,0,.24.91,1.62,1.62,0,0,0,1.47,1.08,1.17,1.17,0,0,0,.69-.23A13.68,13.68,0,0,1,256.62,30.76ZM258,29.65l.06,0,0,0,0,0h0a1.31,1.31,0,0,0,.8-1.23,1.09,1.09,0,0,0-.23-.72.7.7,0,0,0-.58-.28.67.67,0,0,0-.52.22.79.79,0,0,0-.21.56A3.39,3.39,0,0,0,258,29.65Z" style="fill:#772e27"/><path d="M273.56,30.56v1.75h.57v.38h-.57v.21c0,.2,0,.31,0,.34a.32.32,0,0,0,0,.09c0,.06.19.08.41.08h.07v.31h-1.94v-.31h.06c.25,0,.39,0,.43-.08a.36.36,0,0,0,0-.09v-.55h-1.54v-.42l2.08-2.58h.39C273.58,30.11,273.56,30.4,273.56,30.56Zm-2,1.75h1.12V30.89Z" style="fill:#772e27"/><path d="M275.77,31.67a1,1,0,0,1,.37-.29,1.08,1.08,0,0,1,.46-.09,1.11,1.11,0,0,1,.83.32,1.17,1.17,0,0,1,.32.84,1.29,1.29,0,0,1-.41,1,1.48,1.48,0,0,1-1,.38,1.34,1.34,0,0,1-1.12-.52,2,2,0,0,1-.39-1.3,2.6,2.6,0,0,1,.49-1.64,1.53,1.53,0,0,1,1.29-.65,1.23,1.23,0,0,1,.78.22.68.68,0,0,1,.29.58.51.51,0,0,1-.14.37.56.56,0,0,1-.39.14.52.52,0,0,1-.36-.12.42.42,0,0,1-.14-.32.55.55,0,0,1,.11-.33.25.25,0,0,0,0-.11c0-.09-.08-.13-.25-.13a.53.53,0,0,0-.47.32,2.25,2.25,0,0,0-.25.92C275.78,31.43,275.77,31.57,275.77,31.67Zm.54,0a.4.4,0,0,0-.29.1.53.53,0,0,0-.17.28,2.82,2.82,0,0,0,0,.52,1.51,1.51,0,0,0,.12.67.4.4,0,0,0,.36.24c.31,0,.47-.34.47-1C276.76,32,276.61,31.73,276.31,31.72Z" style="fill:#772e27"/></g><g id="E"><path id="E-2" data-name="E" d="M218.87,62.44c-6.05,0-21.67,2.81-22.9,29.69-2.46,40.11,38.75,43.59,41.3,16,0-2.44-2.27,8.46-16.9,8.53-9.85,0-11.45-7-11.23-17,0,0-.22-1.41,1.59-2,2.61-.92,24.06-9.61,24.26-11.85C235.51,82.43,238.8,61.75,218.87,62.44Zm4.62,19.7c-.35,3-13.89,7.5-13.89,7.5-.81.27-.56,0-.68-3s1.27-20.44,8.55-20S223.83,79.21,223.49,82.14Z" style="fill:#f1f2f2"/></g><g id="D"><path id="d-2" data-name="d" d="M187.82,125.18c-2.94-1.07-3.34-7.62-3.68-9.93a9.15,9.15,0,0,1-.1-1.38l.11-80.17s-.26-7.15,4.54-9.77L170.76,12V71.72s-5.26-11.16-17.59-6.34c-31.63,15.89-15,88.26,17.28,55.82v6.11S184.76,125.4,187.82,125.18ZM170,110.83a2.29,2.29,0,0,1-.33,1.23c-1.54,2.54-11.37,7.86-16.4-2.84a22.78,22.78,0,0,1-1.87-5.9c-3.16-17.56,4.47-29.47,12.45-27.78,6.67,1.33,6.64,8.51,6.64,10Z" style="fill:#f1f2f2"/></g><g id="I"><path id="i-2" data-name="i" d="M125.57,66.11v49.83a18.47,18.47,0,0,0,.11,2.1c.32,2.89,1.49,10.09,5.41,12.62l-22.55,4.4S113,130.4,112.77,122c-.07-8.38-.39-41.06-.57-42.37-.25-1.9-1.33-6.49-4.74-7.36Z" style="fill:#f1f2f2"/></g><g id="registered"><path d="M248,127.56a5.7,5.7,0,1,1,5.69-5.7A5.7,5.7,0,0,1,248,127.56Zm0-10.87a5.18,5.18,0,1,0,5.17,5.17A5.18,5.18,0,0,0,248,116.69Z" style="fill:#f1f2f2"/><path d="M246.13,118.65a8.83,8.83,0,0,1,1.65-.14,2.67,2.67,0,0,1,1.92.55,1.63,1.63,0,0,1,.53,1.26A1.76,1.76,0,0,1,249,122v0a1.65,1.65,0,0,1,1,1.34,10.91,10.91,0,0,0,.51,1.83h-.89a9.91,9.91,0,0,1-.44-1.59c-.2-.92-.55-1.27-1.33-1.3H247v2.89h-.86Zm.86,3h.88c.91,0,1.5-.5,1.5-1.26s-.62-1.24-1.53-1.24a3.64,3.64,0,0,0-.85.07Z" style="fill:#f1f2f2"/></g><g id="T"><path d="M80.54,64s.9,67.2,2.82,90.8c.34,4.12,6.71,7.05,8.41,7.33l-41.64,7.77c-3.35.62-16.66-.22-15.33-10.55s11.34-8,13.52-5.72,2,7.15-.31,9.46-2.71,3.57-.12,3.57,14.91-5.5,15.45-17.37-.12-80.45-.72-82.48-1.09-3.19-6.88-4.84L86.5,46.74S80.42,54.94,80.54,64Z" style="fill:#f1f2f2"/><path d="M111.77,62.08A8.16,8.16,0,0,1,106.15,58c-1.83-3.49.81-9.89,5.12-10.25,3.25-.26,7,2.34,5.9,7.31-2.29,13.67,18.6-13.49,5.56-24.43-12.86-12-52.47,22.81-85,32.61a32.62,32.62,0,0,1-20.31-.9C8.84,59.31-.81,52.1.05,33.31,1.45,14.43,18.57,2.1,34,7.57c-4,2.72,2.35,3.24.28,5.2-11.47,9.9-9.76,26.68-3.83,15.09,2-4.68,7.41-3.68,9.2-.14,6.77,13.34-33.55,17.76-9.4-14.15-14.8,2.49-26.56,25-7.09,33.84,24.93,9.18,54.91-32.61,86.9-36.24a29.39,29.39,0,0,1,19.69,4.75C154.11,32.39,135.37,67,111.77,62.08Z" style="fill:#f1f2f2"/></g><g id="stripe"><path id="stripe-2" data-name="stripe" d="M251.67,136.67c-.84,0-11.73,9.57-14.29,11.79-90.87-3.29-148.84,25.07-147.25-2.12.92-7.72,10-14.47,16.18-9.46-11.8,4.09-7.34,15.25,2.18,13.8C201.67,131.1,251.67,136.67,251.67,136.67Z" style="fill:#f1f2f2"/></g></g></g></svg>